Familiyata.S01E04.WEB.Rip.AVI.FREEPLAY.avi
   
General
     
 Complete name : Familiyata.S01E04.WEB.Rip.AVI.FREEPLAY.avi
      Format : AVI
      Format/Info : Audio Video Interleave
      File size : 930 MiB
      Duration : 49mn 26s
      Overall bit rate : 2 631 Kbps
   Video #0
      ID : 0
      Format : MPEG-4 Visual
      Format profile : Simple@L3
      Format settings, BVOP : No
      Format settings, QPel : No
      Format settings, GMC : No warppoints
      Format settings, Matrix : Default (H.263)
      Codec ID : XVID
      Codec ID/Hint : XviD
      Duration : 49mn 26s
      Bit rate : 2 490 Kbps
      Width : 1 280 pixels
      Height : 720 pixels
      Display aspect ratio : 16:9
      Frame rate : 30.000 fps
      Resolution : 24 bits
      Colorimetry : 4:2:0
      Scan type : Progressive
      Bits/(Pixel*Frame) : 0.090
      Stream size : 880 MiB (95%)
      Writing library : XviD 1.2.1 (UTC 2008-12-04)
   Audio #1
      ID : 1
      Format : MPEG Audio
      Format version : Version 1
      Format profile : Layer 3
      Codec ID : 55
      Codec ID/Hint : MP3
      Duration : 49mn 26s
      Bit rate mode : Constant
      Bit rate : 128 Kbps
      Channel(s) : 2 channels
      Sampling rate : 48.0 KHz
      Resolution : 16 bits
      Stream size : 45.3 MiB (5%)
      Alignment : Aligned on interleaves
      Interleave, duration : 24 ms (0.72 video frame)
      Writing library : LAME3.98.2